<?xml version="1.0" standalone="no"?>
<!DOCTYPE svg PUBLIC "-//W3C//DTD SVG 20010904//EN"
 "http://www.w3.org/TR/2001/REC-SVG-20010904/DTD/svg10.dtd">
<svg version="1.0" xmlns="http://www.w3.org/2000/svg"
 width="223.000000pt" height="221.000000pt" viewBox="0 0 223.000000 221.000000"
 preserveAspectRatio="xMidYMid meet">
<metadata>
Created by potrace 1.10, written by Peter Selinger 2001-2011
</metadata>
<g transform="translate(0.000000,221.000000) scale(0.100000,-0.100000)"
fill="#000000" stroke="none">
<path d="M1050 2100 c0 -40 -4 -70 -10 -70 -17 0 -25 -2 -40 -10 -8 -4 -31
-10 -50 -14 l-36 -6 -24 69 c-27 78 -15 75 -123 27 l-57 -26 21 -52 c11 -29
23 -60 26 -69 3 -11 -11 -26 -43 -47 l-48 -31 -47 52 -47 52 -56 -55 c-31 -30
-56 -59 -56 -64 0 -6 21 -32 46 -57 l47 -48 -33 -50 c-17 -28 -34 -51 -36 -51
-3 0 -32 12 -66 26 -69 29 -69 29 -92 -46 -8 -25 -17 -52 -20 -61 -5 -12 7
-22 55 -43 l61 -28 -7 -45 c-11 -74 -10 -73 -86 -73 l-70 0 3 -82 3 -83 69 0
70 0 13 -50 c7 -27 13 -53 13 -56 0 -3 -29 -19 -65 -34 -36 -15 -64 -30 -63
-34 2 -3 14 -37 28 -74 28 -75 24 -74 108 -43 24 9 47 14 51 12 4 -3 20 -24
36 -46 l28 -41 -48 -49 -49 -50 54 -55 54 -55 46 45 c25 25 50 45 55 45 6 -1
28 -16 49 -34 l40 -34 -28 -66 c-16 -37 -26 -70 -22 -73 3 -4 6 -4 6 0 0 3 30
-7 68 -23 l67 -29 29 60 c21 43 33 58 45 55 9 -3 35 -8 59 -11 l42 -7 0 -69 0
-69 80 0 80 0 0 65 c0 74 0 74 79 78 l53 2 26 -60 c14 -33 26 -61 27 -63 2 -2
136 57 142 62 1 1 -6 31 -17 67 l-20 64 23 17 c58 45 62 44 118 -6 l53 -47 55
55 56 56 -50 50 c-54 54 -54 58 -1 123 19 24 27 27 42 18 28 -15 117 -52 119
-49 1 2 12 30 25 63 13 33 28 66 33 72 6 9 2 15 -14 22 -51 19 -114 44 -116
46 -1 0 1 17 6 36 5 19 12 46 15 62 6 27 8 27 84 27 l77 0 -3 79 -3 79 -74 7
-73 7 -6 37 c-3 20 -9 45 -12 57 -5 17 5 25 65 52 l71 31 -26 68 c-14 37 -27
70 -30 72 -2 2 -35 -8 -73 -22 l-70 -25 -30 53 -31 54 50 47 c28 26 50 52 50
58 0 7 -25 36 -55 66 l-55 54 -50 -49 -50 -49 -46 24 c-25 14 -48 29 -51 33
-2 4 8 39 23 77 15 39 25 72 23 74 -12 12 -145 54 -150 48 -3 -4 -17 -33 -29
-64 -26 -64 -32 -66 -104 -45 l-39 12 2 73 2 72 -85 0 -86 0 0 -70z m140 -9
c0 -43 5 -72 13 -78 12 -9 106 -33 132 -33 11 0 23 22 56 107 l8 22 61 -21
c33 -12 60 -25 60 -29 0 -3 -11 -32 -25 -63 -14 -31 -25 -62 -25 -69 0 -12 99
-77 117 -77 5 0 22 14 39 31 53 55 61 56 110 8 l44 -43 -51 -52 -52 -52 32
-54 c17 -29 34 -59 39 -66 6 -9 22 -6 70 13 34 14 65 25 69 25 8 0 43 -88 43
-107 0 -6 -29 -23 -66 -38 -41 -17 -63 -32 -60 -40 2 -7 10 -40 17 -74 l12
-61 68 0 69 0 0 -70 0 -70 -74 0 -73 0 -12 -61 c-7 -34 -14 -66 -17 -73 -3 -7
20 -21 61 -35 36 -13 65 -25 65 -26 0 -20 -46 -115 -55 -115 -7 0 -38 12 -70
26 -55 25 -57 26 -70 8 -7 -11 -27 -37 -43 -59 l-30 -40 52 -53 51 -53 -45
-42 -45 -43 -53 44 -53 45 -33 -18 c-19 -10 -44 -26 -56 -35 l-22 -17 20 -65
20 -66 -51 -21 c-27 -12 -53 -21 -57 -21 -4 0 -19 28 -34 61 l-27 62 -61 -7
c-93 -11 -98 -15 -98 -91 l0 -65 -44 0 c-71 0 -76 5 -76 70 0 34 -5 62 -12 68
-12 9 -104 32 -129 32 -5 0 -20 -25 -34 -55 -13 -30 -28 -55 -33 -55 -5 0 -32
9 -60 21 l-50 21 24 59 c13 32 24 62 24 67 0 8 -95 82 -106 82 -3 0 -26 -18
-51 -40 -25 -22 -49 -40 -52 -40 -4 0 -25 18 -46 40 l-39 40 48 49 48 49 -37
56 c-21 31 -43 56 -49 56 -6 0 -35 -9 -65 -20 -29 -12 -54 -20 -55 -18 -2 2
-12 29 -24 61 l-22 58 23 8 c96 37 107 44 103 60 -2 9 -10 40 -16 69 l-12 52
-69 0 -69 0 0 70 0 70 69 0 68 0 6 38 c4 20 9 51 13 68 6 30 4 31 -55 57 l-60
26 20 61 c12 33 22 60 24 60 1 0 28 -11 59 -25 31 -14 60 -25 64 -25 4 0 24
27 45 60 l39 60 -31 38 c-16 22 -37 45 -46 52 -13 11 -10 18 27 60 l43 47 50
-49 50 -48 55 37 c30 20 57 38 59 39 2 2 -7 34 -22 70 l-26 66 55 24 c30 13
58 24 62 24 4 0 19 -29 32 -65 l24 -65 34 6 c19 4 55 12 81 18 l46 12 3 72 3
72 59 0 60 0 0 -69z"/>
<path d="M963 1940 c-229 -60 -400 -220 -475 -445 -19 -59 -23 -90 -23 -200 0
-109 4 -141 23 -200 88 -267 324 -448 602 -462 197 -10 356 52 500 196 54 54
98 108 117 146 104 201 108 412 11 615 -53 110 -176 237 -285 293 -145 75
-319 97 -470 57z m357 -29 c92 -29 183 -86 256 -158 76 -76 124 -153 160 -258
25 -70 28 -95 28 -200 0 -105 -3 -130 -28 -200 -45 -129 -115 -231 -211 -305
-45 -35 -57 -40 -74 -31 -11 6 -22 19 -26 30 -5 18 -8 18 -63 -5 -64 -26 -92
-30 -110 -12 -9 9 -12 8 -12 -5 0 -11 -8 -17 -22 -17 -21 0 -21 0 -2 -15 19
-15 19 -15 -1 -9 -16 6 -18 4 -8 -6 7 -7 26 -14 42 -15 27 -2 30 1 27 22 -3
16 0 23 11 23 9 0 13 -6 10 -14 -6 -15 19 -30 34 -20 6 3 7 14 4 24 -8 26 13
35 35 15 18 -16 18 -16 13 7 -3 16 -2 19 5 10 5 -7 13 -12 18 -11 5 1 20 -2
34 -8 24 -10 23 -11 -29 -37 -78 -40 -191 -66 -286 -66 -283 0 -526 179 -621
460 -27 78 -27 292 0 370 80 236 273 409 506 454 61 11 246 -2 310 -23z"/>
<path d="M1046 1878 c5 -8 2 -9 -9 -5 -19 7 -22 -9 -7 -33 9 -13 10 -13 10 0
0 12 2 12 8 2 6 -8 9 -2 9 18 0 16 -4 30 -9 30 -5 0 -6 -5 -2 -12z"/>
<path d="M1083 1874 c-3 -8 -1 -20 6 -27 8 -8 11 -5 11 12 0 13 4 20 11 16 6
-4 8 -14 4 -24 -5 -12 -3 -13 6 -4 15 15 5 43 -16 43 -9 0 -18 -7 -22 -16z"/>
<path d="M1197 1883 c-9 -9 -9 -43 1 -43 11 0 32 37 25 44 -8 8 -18 8 -26 -1z"/>
<path d="M970 1851 c0 -10 -7 -21 -15 -25 -16 -6 -16 14 0 26 6 4 0 8 -12 8
-18 0 -22 -6 -21 -29 1 -29 2 -30 28 -16 15 8 30 12 33 9 3 -3 13 -2 23 4 11
6 13 11 5 16 -6 4 -11 2 -11 -4 0 -6 -5 -8 -11 -5 -6 4 -8 13 -5 21 3 8 1 14
-4 14 -6 0 -10 -9 -10 -19z"/>
<path d="M1287 1853 c-12 -12 -7 -31 10 -37 9 -4 21 -1 27 5 8 9 6 10 -8 5
-15 -5 -17 -2 -13 14 5 20 -3 26 -16 13z"/>
<path d="M879 1821 c6 -10 8 -20 6 -23 -3 -3 2 -5 10 -5 10 0 14 6 10 14 -3 8
-5 19 -5 24 0 5 -7 9 -15 9 -12 0 -13 -4 -6 -19z"/>
<path d="M1370 1820 c0 -22 33 -60 53 -60 9 0 9 2 -1 9 -11 6 -10 10 4 15 23
9 28 2 15 -22 -9 -17 -7 -22 12 -28 12 -5 25 -7 30 -6 4 1 7 -4 7 -12 0 -8 5
-18 10 -21 12 -8 40 12 40 28 0 5 -9 2 -20 -8 -11 -10 -20 -13 -20 -7 0 6 5
14 10 17 6 3 10 12 10 18 0 7 -4 6 -10 -3 -8 -13 -10 -13 -10 2 0 9 -5 20 -10
23 -6 4 -9 1 -8 -6 2 -7 -5 -15 -14 -17 -10 -2 -18 2 -18 8 0 6 4 9 8 6 23
-14 5 28 -19 44 l-27 20 -7 -23 c-6 -20 -7 -20 -16 11 -11 36 -19 42 -19 12z"/>
<path d="M838 1808 c17 -17 15 -33 -3 -18 -21 17 -24 10 -10 -18 10 -19 13
-21 19 -7 3 9 10 13 16 10 13 -8 13 1 0 26 -6 10 -16 19 -22 19 -9 0 -9 -3 0
-12z"/>
<path d="M1021 1799 c-143 -28 -292 -146 -357 -283 -72 -151 -70 -299 5 -451
190 -383 735 -377 925 10 34 70 45 125 46 221 0 141 -52 264 -154 366 -120
119 -295 170 -465 137z m228 -24 c127 -33 256 -132 313 -241 98 -183 71 -416
-67 -572 -78 -89 -229 -163 -329 -161 -34 1 -37 2 -16 8 35 11 106 57 182 120
l65 52 8 212 c3 117 4 224 0 240 l-7 27 -272 -2 -271 -3 -3 -231 -2 -232 61
-56 c76 -70 157 -126 184 -126 13 0 3 10 -30 29 -74 43 -188 142 -195 171 -3
14 -4 118 -2 233 l4 207 259 0 259 0 0 -227 0 -226 -42 -36 c-116 -100 -218
-161 -268 -161 -15 0 -51 7 -81 16 -300 88 -450 411 -320 690 57 122 189 233
322 268 70 19 180 20 248 1z"/>
<path d="M1040 1748 c-115 -17 -228 -93 -300 -200 -22 -33 -40 -64 -40 -69 0
-5 187 -9 430 -9 237 0 430 3 430 6 0 4 -21 35 -46 71 -82 114 -193 184 -322
202 -73 11 -73 11 -152 -1z m215 -25 c66 -21 151 -73 196 -120 40 -43 89 -106
89 -116 0 -4 -68 -7 -152 -7 -148 0 -151 0 -134 19 28 31 18 82 -21 106 -22
13 -32 27 -30 40 3 28 37 32 44 6 3 -12 9 -21 14 -21 15 0 10 27 -9 51 -22 27
-48 21 -61 -15 -14 -35 -3 -65 31 -82 23 -12 29 -21 26 -42 -4 -35 -41 -38
-46 -4 -2 12 -8 22 -14 22 -15 0 0 -53 19 -67 14 -11 -33 -13 -241 -13 l-258
0 17 28 c40 62 70 96 123 138 118 92 266 120 407 77z"/>
<path d="M1098 1628 c-2 -84 -6 -103 -18 -103 -8 0 -16 10 -18 23 -4 28 -22
29 -22 1 0 -49 42 -78 68 -46 16 19 20 227 5 227 -9 0 -13 -30 -15 -102z"/>
<path d="M958 1669 c-40 -21 -52 -45 -18 -34 19 6 20 2 20 -69 0 -44 4 -76 10
-76 6 0 10 33 10 79 0 61 3 80 15 85 15 5 22 36 8 36 -5 -1 -25 -10 -45 -21z"/>
<path d="M1347 1622 c-25 -27 -21 -40 18 -63 19 -12 35 -27 35 -34 0 -23 -29
-25 -50 -3 -15 16 -20 18 -20 7 0 -36 56 -53 80 -24 19 22 8 49 -27 65 -33 15
-43 35 -20 43 6 2 20 -2 30 -11 15 -14 17 -13 17 1 0 9 -9 21 -19 27 -25 13
-25 13 -44 -8z"/>
<path d="M810 1550 l0 -60 35 0 c19 0 35 5 35 10 0 6 -11 10 -25 10 -23 0 -25
3 -25 50 0 28 -4 50 -10 50 -6 0 -10 -27 -10 -60z"/>
<path d="M1287 1523 c-13 -12 -7 -33 8 -33 8 0 15 9 15 20 0 20 -11 26 -23 13z"/>
<path d="M937 1413 c-14 -13 -6 -47 17 -77 21 -28 22 -34 10 -51 -19 -26 -18
-35 5 -35 12 0 21 9 25 26 4 16 12 24 20 21 8 -3 22 0 32 7 17 13 17 15 0 40
-13 21 -15 31 -6 41 7 8 7 15 1 19 -5 4 -14 -1 -18 -9 -8 -14 -12 -13 -28 5
-18 20 -45 26 -58 13z m48 -23 c15 -16 16 -23 6 -33 -10 -9 -15 -8 -27 7 -29
40 -12 62 21 26z m44 -49 c13 -23 4 -33 -20 -20 -10 5 -16 16 -13 24 8 20 21
19 33 -4z"/>
<path d="M1100 1331 c0 -61 -4 -92 -13 -99 -7 -6 -58 -13 -113 -15 l-99 -3
123 -2 122 -2 0 105 c0 63 -4 105 -10 105 -6 0 -10 -36 -10 -89z"/>
<path d="M1188 1391 c-31 -28 -32 -31 -15 -48 16 -16 17 -16 17 0 0 20 21 22
38 5 19 -19 14 -36 -15 -50 -14 -7 -29 -20 -31 -28 -4 -12 -2 -13 9 -2 20 18
32 15 26 -8 -7 -28 12 -25 23 4 14 37 24 38 55 6 23 -24 31 -27 43 -18 12 10
8 16 -19 39 -29 23 -31 29 -20 43 7 9 19 16 26 16 7 0 18 7 26 16 11 13 9 14
-14 9 -28 -8 -35 3 -15 23 8 8 8 12 1 12 -13 0 -35 -25 -28 -32 3 -3 -3 -12
-13 -21 -18 -16 -20 -16 -36 2 -19 21 -14 41 10 41 8 0 12 5 9 10 -11 18 -44
10 -77 -19z"/>
<path d="M1127 1203 c-9 -16 -6 -363 4 -363 5 0 9 67 9 163 0 176 3 187 53
187 16 0 26 4 22 10 -7 12 -82 14 -88 3z"/>
<path d="M1285 1200 c-4 -6 13 -10 40 -10 25 0 44 4 41 8 -7 12 -74 13 -81 2z"/>
<path d="M1213 1134 c-18 -35 -29 -64 -24 -64 5 0 14 14 21 30 25 61 19 21
-10 -65 -16 -49 -27 -91 -24 -94 4 -3 9 0 11 7 3 6 13 12 24 12 10 0 19 5 19
11 0 6 -7 9 -15 5 -8 -3 -15 -1 -15 4 0 6 11 10 24 10 21 0 23 -4 19 -40 -2
-24 0 -40 7 -40 5 0 10 18 10 40 0 35 3 40 23 39 16 -1 18 -2 5 -6 -26 -7 -22
-20 7 -25 14 -3 25 -2 25 2 0 26 -43 140 -50 135 -15 -9 -12 5 4 20 12 12 12
19 -2 50 -9 19 -19 35 -22 34 -3 0 -20 -29 -37 -65z"/>
<path d="M938 1138 c-2 -28 -8 -34 -30 -36 -34 -4 -36 -27 -10 -89 17 -43 32
-56 32 -29 0 8 3 16 8 19 4 2 1 2 -5 1 -7 -2 -13 5 -13 16 0 16 7 20 33 20 17
0 56 3 85 6 47 6 52 5 52 -12 0 -15 -2 -16 -9 -5 -7 11 -13 10 -34 -4 -15 -9
-31 -14 -37 -10 -5 3 -20 -1 -32 -9 -12 -9 -17 -16 -11 -16 6 0 20 -3 30 -7
16 -6 16 -5 4 10 -16 20 -1 23 18 5 11 -11 14 -10 18 0 4 10 8 10 21 0 13 -11
15 -10 9 5 -8 21 -3 22 17 1 15 -14 16 -12 16 24 0 28 -7 45 -25 62 l-25 23 0
-25 c0 -24 -3 -26 -37 -23 -21 1 -44 -2 -50 -7 -7 -6 -13 -7 -14 -2 -2 18 3
89 7 93 2 2 23 5 46 6 24 2 37 1 31 -2 -7 -2 -13 -9 -13 -15 0 -6 6 -8 14 -5
8 3 17 1 20 -6 2 -7 5 0 5 16 1 27 0 27 -58 27 l-60 0 -3 -32z"/>
<path d="M706 1714 c-4 -9 -1 -23 6 -32 11 -13 9 -14 -14 -8 -17 4 -28 2 -28
-4 0 -5 5 -10 10 -10 12 0 13 -10 1 -29 -8 -12 -12 -13 -25 -1 -9 7 -19 10
-23 6 -4 -3 2 -13 13 -21 21 -16 34 -19 34 -7 0 4 11 20 25 36 14 16 25 33 25
38 0 4 7 8 16 8 8 0 12 5 8 11 -3 6 -15 8 -26 6 -16 -4 -17 -3 -7 9 7 8 7 14
1 14 -5 0 -13 -7 -16 -16z"/>
<path d="M1573 1679 c3 -9 0 -22 -6 -28 -11 -11 8 -61 25 -61 13 0 9 17 -7 34
-11 10 -12 17 -4 22 6 3 15 0 20 -7 5 -8 9 -9 9 -3 0 6 -10 22 -22 35 -12 14
-19 17 -15 8z"/>
<path d="M606 1579 c-11 -18 -14 -29 -7 -25 7 4 18 3 26 -4 9 -7 15 -8 20 0 3
5 -1 13 -9 16 -23 9 -19 26 4 19 24 -7 27 10 4 19 -9 3 -17 6 -18 6 -1 0 -10
-14 -20 -31z"/>
<path d="M1629 1598 c-9 -24 -8 -68 2 -68 6 0 9 -7 5 -15 -7 -18 5 -20 22 -3
15 15 16 32 2 23 -15 -9 -30 4 -24 20 4 8 10 13 14 10 5 -3 6 4 3 15 -4 16
-20 28 -24 18z"/>
<path d="M1693 1293 c-21 -8 -15 -43 7 -43 11 0 20 5 20 10 0 6 -5 10 -12 10
-6 0 -3 7 8 15 14 11 15 14 4 14 -8 0 -21 -3 -27 -6z"/>
<path d="M549 1260 l-24 -19 25 -1 c19 0 26 6 27 20 2 25 1 25 -28 0z"/>
<path d="M1670 1214 c0 -23 2 -25 17 -13 9 8 19 12 22 9 3 -3 7 3 9 13 3 13
-3 17 -22 17 -21 0 -26 -5 -26 -26z"/>
<path d="M537 1216 c-7 -17 8 -30 43 -41 22 -7 23 -6 11 9 -7 9 -20 16 -28 16
-8 0 -11 5 -8 10 4 6 11 8 16 5 5 -4 9 -1 9 4 0 16 -37 13 -43 -3z"/>
<path d="M847 803 c-12 -11 -8 -31 10 -48 15 -16 18 -15 34 6 16 22 16 23 -8
36 -29 15 -28 15 -36 6z"/>
<path d="M925 760 c3 -5 1 -10 -5 -10 -6 0 -8 -5 -4 -12 5 -7 11 -5 21 8 13
17 14 17 7 -10 -5 -20 -3 -27 4 -22 6 3 13 2 17 -4 8 -13 25 -13 25 0 0 6 -7
10 -15 10 -8 0 -15 7 -15 16 0 13 3 14 13 5 8 -6 17 -8 21 -4 3 4 -8 13 -25
20 -37 16 -52 17 -44 3z"/>
<path d="M1025 731 c2 -29 10 -34 55 -35 27 -1 40 3 40 12 0 7 -4 10 -10 7 -5
-3 -10 -1 -10 4 0 6 9 11 20 11 13 0 20 -7 20 -18 0 -19 18 -42 32 -42 4 0 8
16 8 35 l0 35 -64 0 c-35 0 -71 2 -79 5 -9 4 -13 -1 -12 -14z"/>
<path d="M97 1424 c-11 -12 -8 -83 5 -104 16 -26 3 -37 -20 -17 -32 29 -42 21
-42 -35 0 -63 25 -110 70 -133 32 -16 43 -42 13 -30 -10 4 -24 9 -30 12 -8 3
-13 -2 -13 -13 0 -20 48 -74 66 -74 12 0 28 -29 20 -37 -2 -3 -13 0 -24 6 -26
14 -42 14 -42 1 0 -18 63 -81 76 -76 14 5 38 -27 27 -37 -3 -4 -14 -2 -25 4
-26 14 -34 4 -19 -24 13 -24 64 -60 73 -51 3 2 11 -2 18 -11 11 -13 9 -15 -14
-15 -16 0 -26 -6 -26 -14 0 -21 48 -56 76 -56 15 0 24 -6 24 -15 0 -8 -9 -15
-20 -15 -33 0 -22 -28 19 -49 21 -11 41 -17 45 -14 7 7 46 -26 46 -39 0 -5
-12 -7 -26 -6 -15 2 -29 -3 -31 -10 -6 -16 62 -45 88 -37 12 4 28 -3 46 -19
l28 -26 -33 0 c-38 0 -41 -14 -7 -36 17 -11 37 -15 58 -11 23 4 40 -1 58 -14
l24 -19 -27 0 c-34 0 -36 -13 -6 -34 26 -18 75 -21 80 -5 2 7 15 4 36 -8 37
-21 41 -32 10 -26 -31 5 -57 -12 -41 -28 16 -16 92 -17 102 0 7 10 15 10 42
-5 33 -17 33 -17 11 -27 -40 -18 -23 -39 34 -39 19 0 40 4 47 9 8 6 24 3 47
-8 l35 -17 -30 -12 c-23 -9 -26 -13 -15 -20 22 -14 98 -12 103 3 3 10 9 9 26
-1 11 -6 28 -12 36 -12 8 0 15 -4 15 -8 0 -7 -349 -124 -405 -135 -11 -3 -4
-5 15 -6 35 -1 277 71 366 110 l47 20 198 -66 c118 -39 213 -65 236 -64 21 1
29 3 18 6 -47 11 -346 105 -381 119 -38 16 -38 17 -15 25 15 6 28 5 37 -1 17
-15 96 -8 102 8 2 6 -3 12 -12 12 -8 0 -18 4 -21 10 -8 14 57 40 72 28 16 -13
96 -6 100 8 2 7 -9 16 -24 22 l-28 9 39 17 c28 12 42 13 46 5 10 -14 79 -14
93 0 14 14 -6 30 -38 31 -18 0 -18 2 5 20 26 21 56 27 45 10 -10 -16 58 -12
83 6 26 18 21 34 -10 34 -20 0 -20 1 -3 20 12 14 25 17 46 13 34 -7 89 14 89
33 0 8 -10 14 -25 14 -31 0 -31 7 -2 30 13 11 32 17 47 14 29 -6 94 31 84 47
-3 6 -17 8 -30 5 -27 -7 -30 1 -10 27 7 9 26 17 43 17 18 0 38 9 51 23 29 31
28 40 -3 34 -38 -7 -28 25 11 35 16 4 40 19 53 32 27 28 21 52 -9 36 -27 -14
-32 -12 -19 8 6 10 21 19 33 19 29 3 81 62 67 76 -8 8 -14 8 -23 -1 -7 -7 -18
-12 -25 -12 -10 0 -10 5 -2 24 7 14 17 22 25 19 16 -6 74 49 74 71 0 21 -19
20 -42 -1 -10 -9 -21 -14 -24 -10 -9 9 15 47 30 47 17 0 66 56 66 76 0 18 -24
18 -40 -1 -17 -21 -29 -19 -23 4 3 11 18 25 33 31 44 18 60 51 60 120 0 33 -3
60 -8 60 -4 0 -18 -7 -30 -16 -24 -17 -27 -9 -11 33 13 34 3 93 -16 93 -17 0
-23 -43 -12 -94 4 -21 6 -41 3 -43 -2 -2 -16 8 -30 22 -28 28 -46 26 -46 -4 0
-24 37 -71 56 -71 9 0 14 -11 14 -30 0 -38 -9 -38 -42 2 -20 25 -30 30 -38 22
-14 -14 9 -65 40 -87 15 -11 18 -21 13 -50 -6 -40 -18 -48 -28 -18 -7 23 -43
56 -51 48 -11 -11 6 -58 31 -83 19 -19 24 -31 19 -50 -8 -31 -18 -31 -32 1 -7
15 -20 25 -32 25 -26 0 -25 -9 6 -55 17 -26 24 -46 20 -61 -8 -32 -19 -30 -33
6 -6 17 -16 30 -22 30 -17 0 -13 -63 5 -88 13 -19 14 -27 2 -52 -16 -38 -22
-38 -33 2 -6 17 -15 33 -21 35 -18 6 -22 -31 -8 -72 9 -28 10 -44 2 -61 -15
-31 -21 -30 -35 6 -21 57 -49 27 -32 -34 10 -38 3 -62 -25 -86 -14 -10 -16 -9
-16 8 0 11 -8 30 -19 43 l-18 23 -7 -22 c-4 -12 -2 -38 4 -58 10 -30 9 -38 -6
-55 -27 -30 -41 -24 -36 17 3 28 1 35 -9 32 -22 -7 -40 -50 -35 -84 3 -26 0
-34 -20 -44 -13 -8 -24 -17 -24 -22 0 -4 -7 -8 -15 -8 -12 0 -13 4 -5 19 14
28 12 51 -5 51 -16 0 -36 -32 -44 -74 -4 -16 -17 -36 -30 -44 -23 -16 -23 -16
-17 15 4 18 3 34 -3 37 -14 9 -49 -31 -56 -66 -5 -20 -18 -34 -47 -49 -47 -24
-53 -21 -37 15 18 39 -2 55 -30 25 -18 -20 -26 -45 -22 -71 1 -11 -97 -59
-103 -50 -2 4 -1 14 5 22 12 20 11 60 -1 60 -15 0 -50 -61 -50 -87 0 -15 -8
-23 -28 -28 -32 -7 -106 20 -97 35 8 14 -23 77 -42 84 -24 10 -28 -1 -14 -40
7 -20 11 -37 9 -39 -2 -2 -24 6 -50 18 -38 18 -47 28 -51 56 -6 34 -32 71 -50
71 -10 0 -5 -42 8 -73 7 -16 1 -15 -44 7 -39 20 -51 32 -51 50 0 25 -35 76
-52 76 -7 0 -8 -13 -5 -35 7 -40 5 -41 -28 -19 -16 11 -25 26 -25 43 0 29 -25
71 -42 71 -6 0 -8 -13 -6 -30 5 -35 -3 -37 -41 -9 -21 15 -27 27 -23 45 5 30
-17 86 -32 81 -6 -2 -10 -18 -10 -36 2 -36 -2 -38 -32 -11 -19 19 -20 24 -9
58 14 39 10 62 -10 62 -14 0 -25 -22 -25 -51 0 -27 -13 -24 -38 11 -18 24 -20
34 -12 49 5 11 10 34 10 51 0 25 -4 31 -17 28 -10 -2 -19 -12 -21 -23 -6 -34
-18 -37 -36 -10 -15 23 -15 28 -1 47 18 26 20 74 4 84 -14 8 -29 -14 -29 -43
0 -31 -16 -29 -32 5 -13 24 -12 31 4 57 18 30 25 85 10 85 -14 0 -32 -23 -32
-41 0 -29 -19 -32 -30 -5 -8 21 -5 33 15 62 14 20 25 43 25 50 0 24 -18 24
-38 -1 -11 -14 -25 -25 -31 -25 -17 0 -13 46 5 61 17 14 44 62 44 79 0 22 -32
9 -48 -20 -20 -35 -36 -34 -40 2 -2 17 5 34 22 51 26 26 43 73 31 85 -4 4 -19
-8 -34 -25 -34 -41 -41 -41 -41 -4 0 20 6 32 18 35 10 3 26 19 35 36 29 49 2
68 -40 28 l-23 -21 3 68 c2 63 -7 87 -26 69z"/>
</g>
</svg>
