<?xml version="1.0" standalone="no"?>
<!DOCTYPE svg PUBLIC "-//W3C//DTD SVG 20010904//EN"
 "http://www.w3.org/TR/2001/REC-SVG-20010904/DTD/svg10.dtd">
<svg version="1.0" xmlns="http://www.w3.org/2000/svg"
 width="223.000000pt" height="221.000000pt" viewBox="0 0 223.000000 221.000000"
 preserveAspectRatio="xMidYMid meet">
<metadata>
Created by potrace 1.10, written by Peter Selinger 2001-2011
</metadata>
<g transform="translate(0.000000,221.000000) scale(0.100000,-0.100000)"
fill="#f9f9f9" stroke="none">
<path d="M1048 2098 c-2 -57 -6 -73 -18 -74 -8 0 -33 -6 -55 -12 -22 -7 -44
-12 -50 -12 -5 0 -21 29 -34 65 -14 36 -29 65 -35 65 -5 0 -40 -14 -77 -31
l-68 -31 21 -52 c32 -81 33 -79 -18 -115 l-48 -33 -49 52 -50 52 -53 -53 c-30
-30 -54 -56 -54 -59 0 -3 21 -29 46 -58 l46 -52 -32 -50 c-18 -28 -34 -50 -36
-50 -3 0 -32 11 -66 25 -34 14 -63 25 -64 25 -1 0 -11 -26 -22 -57 -11 -32
-23 -65 -26 -74 -5 -12 7 -22 54 -43 l62 -28 -7 -51 c-4 -29 -9 -55 -12 -59
-2 -5 -35 -8 -74 -8 l-69 0 0 -54 c0 -29 3 -67 6 -84 l6 -31 66 2 65 2 13 -50
c8 -27 14 -53 14 -56 0 -4 -29 -19 -65 -34 -36 -16 -65 -29 -65 -31 0 -7 54
-130 61 -138 5 -5 22 -2 41 7 18 8 47 18 63 21 27 6 33 2 59 -40 l29 -45 -49
-50 -48 -49 54 -55 54 -55 46 45 c25 25 50 45 55 45 6 0 28 -15 50 -34 l39
-33 -27 -63 c-15 -35 -26 -65 -24 -66 2 -2 35 -17 74 -33 l71 -29 25 59 c23
52 29 59 49 55 13 -3 40 -8 61 -11 l37 -6 0 -69 0 -70 78 0 79 0 2 62 c1 34 4
65 7 69 2 4 23 10 47 14 23 3 49 9 58 11 12 3 24 -12 45 -63 15 -37 29 -69 29
-71 2 -2 132 56 143 63 1 1 -7 28 -18 61 -11 32 -20 64 -20 69 0 6 20 21 45
34 l44 23 53 -46 53 -46 55 55 55 55 -52 52 -51 53 35 45 c19 25 36 46 38 48
2 2 11 -1 22 -6 27 -14 113 -52 117 -52 2 0 7 12 10 26 4 14 18 48 31 75 l23
49 -31 14 c-18 7 -49 19 -70 27 -41 15 -40 9 -16 102 l10 37 77 0 77 0 -3 80
-4 80 -27 0 c-16 0 -49 3 -74 6 -42 6 -45 8 -51 43 -3 20 -9 45 -12 57 -5 17
5 25 65 52 l71 31 -26 68 c-14 37 -27 70 -30 72 -2 2 -35 -8 -74 -22 l-69 -26
-31 54 -31 54 50 53 c28 29 51 55 51 58 0 3 -25 30 -55 60 l-55 54 -49 -48
c-47 -46 -51 -48 -78 -37 -15 6 -39 20 -52 30 l-25 19 28 72 c16 39 27 72 25
74 -2 1 -36 15 -76 29 l-72 26 -20 -43 c-10 -25 -22 -54 -26 -65 -7 -24 -15
-25 -86 -10 l-51 11 4 74 3 74 -82 0 -82 0 -3 -72z m152 -13 l0 -74 38 -10
c94 -25 110 -25 117 1 5 12 16 42 26 65 l18 42 60 -20 c34 -12 61 -25 61 -30
0 -4 -11 -34 -25 -65 -14 -31 -25 -62 -25 -69 0 -9 70 -55 113 -74 5 -2 31 18
58 45 l49 48 47 -47 47 -47 -52 -53 -53 -53 37 -66 37 -67 69 26 c38 14 70 24
72 22 6 -9 46 -112 44 -114 -2 -1 -29 -13 -62 -26 -32 -13 -61 -29 -63 -36 -3
-7 0 -42 7 -78 l12 -65 69 0 69 0 0 -47 c0 -27 3 -58 6 -70 6 -22 4 -23 -73
-23 l-79 0 -15 -73 -15 -73 63 -23 c35 -13 63 -26 63 -31 0 -6 -39 -108 -45
-118 -1 -1 -33 12 -70 29 -59 27 -69 29 -77 15 -5 -8 -24 -35 -42 -59 l-34
-44 51 -52 51 -51 -44 -45 -44 -44 -53 45 -53 46 -43 -26 c-23 -14 -47 -29
-54 -34 -10 -6 -8 -22 7 -72 11 -35 18 -65 17 -66 -1 -2 -27 -14 -57 -28 l-54
-25 -28 62 c-27 61 -28 62 -65 61 -21 0 -54 -4 -74 -8 -40 -7 -49 -27 -49
-108 l0 -39 -62 3 -62 3 3 61 c1 41 -2 64 -11 71 -11 8 -106 33 -127 33 -5 0
-20 -27 -35 -59 l-27 -60 -37 16 c-20 8 -47 19 -59 24 l-22 8 25 67 c13 37 23
67 22 68 -2 1 -24 19 -49 39 -25 20 -50 37 -55 37 -4 0 -29 -20 -54 -45 l-46
-45 -44 45 -44 45 48 49 48 49 -37 56 c-21 31 -42 56 -46 56 -5 0 -33 -9 -64
-21 -31 -12 -58 -19 -59 -17 -1 1 -12 29 -24 60 l-21 57 56 26 c30 14 60 25
65 25 6 0 8 6 5 13 -2 7 -10 38 -17 70 l-11 57 -70 0 -69 0 0 70 0 69 67 3
c74 3 72 1 86 94 l7 41 -60 26 -59 25 20 61 c12 34 22 61 23 61 1 0 31 -12 66
-26 35 -14 66 -21 69 -16 3 5 21 32 39 60 l34 52 -46 54 -46 54 41 46 42 47
51 -50 c58 -57 48 -57 133 6 l33 24 -25 66 c-29 75 -28 73 -15 73 6 0 33 11
61 24 l50 25 9 -22 c43 -106 51 -119 64 -114 9 4 42 12 75 18 67 14 71 20 71
107 l0 52 65 0 65 0 0 -75z"/>
<path d="M980 1944 c-81 -17 -209 -80 -275 -134 -152 -127 -245 -321 -245
-515 0 -419 398 -740 803 -649 279 63 477 281 519 569 17 122 -5 252 -64 373
-60 123 -178 242 -300 301 -141 68 -290 87 -438 55z m295 -19 c89 -23 213 -87
277 -145 77 -69 151 -182 184 -283 24 -70 28 -99 28 -202 1 -106 -3 -130 -27
-201 -43 -126 -123 -240 -217 -309 -40 -30 -53 -34 -69 -26 -11 6 -22 20 -26
30 -6 19 -8 19 -64 -4 -32 -13 -82 -27 -111 -31 -39 -5 -48 -9 -36 -16 9 -5
16 -14 16 -21 0 -7 -4 -6 -10 3 -5 8 -12 11 -16 7 -12 -12 5 -21 46 -23 37 -2
38 -1 30 22 -8 19 -6 24 6 24 10 0 14 -6 11 -14 -7 -17 22 -31 36 -17 7 7 6
15 -3 26 -7 8 -8 15 -2 15 5 0 12 -7 16 -15 3 -8 11 -15 18 -15 9 0 8 3 -2 10
-8 5 -10 10 -5 10 6 0 3 5 -5 10 -13 8 -13 10 2 10 9 0 20 -9 23 -21 4 -11 9
-18 12 -16 2 3 0 15 -7 26 -7 14 -7 21 0 21 5 0 10 -5 10 -10 0 -6 6 -10 13
-9 6 1 23 -2 37 -8 24 -10 24 -11 -27 -36 -85 -43 -187 -67 -288 -67 -183 0
-320 57 -451 185 -69 67 -89 95 -127 175 -51 106 -67 176 -67 291 0 108 15
169 65 274 85 178 240 305 425 350 76 18 233 18 305 0z m-5 -1189 c0 -2 -6 -9
-13 -15 -10 -8 -14 -7 -14 4 0 8 6 15 14 15 7 0 13 -2 13 -4z"/>
<path d="M1046 1878 c5 -8 2 -9 -11 -5 -14 6 -16 3 -12 -14 4 -15 2 -19 -9
-15 -8 3 -14 0 -14 -6 0 -9 -3 -9 -11 -1 -14 14 -2 36 13 27 7 -4 8 -2 4 4
-10 16 -36 3 -36 -19 0 -20 -15 -26 -24 -10 -4 5 0 11 6 14 7 3 3 4 -10 4 -17
-1 -22 -6 -19 -19 7 -24 -13 -35 -25 -14 -12 22 -31 21 -20 -1 5 -10 7 -25 5
-33 -4 -13 -3 -13 6 0 6 8 11 12 11 7 0 -4 14 0 31 9 17 9 48 18 68 20 20 3
38 10 40 15 2 8 6 8 11 0 3 -7 7 2 7 19 0 16 -4 30 -9 30 -5 0 -6 -5 -2 -12z"/>
<path d="M1083 1874 c-3 -8 -1 -20 6 -27 8 -8 11 -5 11 12 0 13 4 20 11 16 6
-4 8 -14 4 -24 -5 -12 -3 -13 6 -4 15 15 5 43 -16 43 -9 0 -18 -7 -22 -16z"/>
<path d="M1141 1866 l-1 -28 19 23 c11 13 17 26 15 29 -3 2 -9 -2 -13 -9 -7
-11 -10 -11 -14 0 -3 8 -6 1 -6 -15z"/>
<path d="M1197 1883 c-15 -15 -6 -43 16 -47 51 -11 63 -4 51 28 -9 23 -27 20
-19 -3 5 -16 1 -19 -15 -18 -12 1 -20 8 -20 20 0 11 4 15 12 11 7 -4 8 -3 4 4
-8 13 -19 15 -29 5z"/>
<path d="M1287 1853 c-12 -12 -7 -31 10 -37 9 -4 21 -1 27 5 8 9 6 10 -8 5
-15 -5 -17 -2 -13 14 5 20 -3 26 -16 13z"/>
<path d="M1340 1841 c0 -5 -3 -16 -6 -24 -3 -8 1 -17 8 -19 9 -4 13 4 14 23 1
16 -3 29 -7 29 -5 0 -9 -4 -9 -9z"/>
<path d="M1373 1815 c2 -24 12 -37 51 -62 27 -18 53 -30 58 -27 4 3 8 -2 8
-10 0 -8 5 -18 10 -21 12 -8 40 12 40 28 0 5 -9 2 -20 -8 -22 -19 -28 -7 -7
14 10 10 9 11 -6 5 -13 -4 -16 -2 -11 9 3 8 0 18 -7 23 -8 4 -10 3 -5 -4 4 -7
5 -16 1 -22 -7 -11 -35 -2 -35 12 0 5 4 7 8 4 23 -14 5 28 -19 44 l-27 20 -7
-23 c-6 -20 -7 -20 -20 13 l-15 35 3 -30z m77 -34 c-1 -20 -16 -28 -28 -15 -8
9 -9 14 -2 14 6 0 8 4 5 10 -3 6 1 7 9 4 9 -3 16 -9 16 -13z"/>
<path d="M846 1795 c9 -14 19 -24 21 -21 7 7 -16 46 -28 46 -5 0 -2 -11 7 -25z"/>
<path d="M1008 1795 c-204 -52 -362 -225 -390 -429 -43 -307 200 -586 510
-586 212 0 405 135 486 340 27 68 33 231 11 306 -48 167 -171 299 -330 355
-77 27 -211 34 -287 14z m264 -25 c134 -41 243 -137 307 -270 36 -74 36 -76
36 -205 0 -129 0 -131 -37 -208 -86 -181 -252 -287 -449 -287 -101 0 -189 23
-262 70 -170 107 -261 309 -229 503 23 136 111 272 223 343 113 71 283 94 411
54z"/>
<path d="M1054 1749 c-128 -16 -254 -101 -329 -221 l-36 -58 262 0 c248 0 262
1 290 21 38 27 39 70 3 104 -15 14 -31 25 -36 25 -5 0 -8 10 -6 22 4 30 38 37
45 9 3 -12 9 -21 14 -21 15 0 10 27 -10 51 -16 20 -23 22 -38 13 -36 -22 -29
-94 12 -112 21 -10 26 -18 23 -40 -4 -35 -41 -39 -46 -4 -2 12 -8 22 -14 22
-15 0 0 -53 19 -67 14 -11 -33 -13 -241 -13 l-257 0 18 31 c56 94 160 178 261
209 186 58 380 -6 507 -167 25 -32 45 -61 45 -65 0 -4 -69 -9 -152 -11 l-153
-3 163 -2 c89 -1 162 1 162 4 0 4 -21 35 -46 71 -80 112 -189 182 -316 203
-35 5 -67 9 -73 9 -5 -1 -37 -5 -71 -10z"/>
<path d="M1098 1628 c-2 -84 -6 -103 -18 -103 -8 0 -16 10 -18 23 -4 28 -22
29 -22 1 0 -49 42 -78 68 -46 16 19 20 227 5 227 -9 0 -13 -30 -15 -102z"/>
<path d="M958 1669 c-40 -21 -52 -45 -18 -34 19 6 20 2 20 -69 0 -44 4 -76 10
-76 6 0 10 33 10 79 0 61 3 80 15 85 15 5 22 36 8 36 -5 -1 -25 -10 -45 -21z"/>
<path d="M1290 1651 c0 -10 19 -25 25 -20 1 2 -3 10 -11 17 -8 7 -14 8 -14 3z"/>
<path d="M1347 1622 c-25 -27 -21 -40 18 -63 38 -23 45 -43 18 -53 -11 -5 -23
1 -35 16 -13 17 -18 19 -18 8 0 -37 56 -54 80 -25 19 22 8 49 -27 65 -18 8
-33 20 -33 27 0 21 21 25 41 7 17 -15 19 -15 19 -1 0 9 -9 21 -19 27 -25 13
-25 13 -44 -8z"/>
<path d="M890 1620 c-9 -6 -10 -10 -3 -10 6 0 15 5 18 10 8 12 4 12 -15 0z"/>
<path d="M810 1550 l0 -60 35 0 c19 0 35 5 35 10 0 6 -11 10 -25 10 -23 0 -25
3 -25 50 0 28 -4 50 -10 50 -6 0 -10 -27 -10 -60z"/>
<path d="M1007 1533 c-11 -10 -8 -43 3 -43 6 0 10 11 10 25 0 26 -2 29 -13 18z"/>
<path d="M1140 1515 c0 -14 5 -25 10 -25 6 0 10 11 10 25 0 14 -4 25 -10 25
-5 0 -10 -11 -10 -25z"/>
<path d="M890 1510 c0 -11 5 -20 10 -20 6 0 10 9 10 20 0 11 -4 20 -10 20 -5
0 -10 -9 -10 -20z"/>
<path d="M1284 1510 c0 -11 6 -20 13 -20 7 0 13 9 13 20 0 11 -6 20 -13 20 -7
0 -13 -9 -13 -20z"/>
<path d="M1430 1505 c0 -8 5 -15 10 -15 6 0 10 7 10 15 0 8 -4 15 -10 15 -5 0
-10 -7 -10 -15z"/>
<path d="M851 1226 l-1 -235 65 -57 c35 -31 62 -61 58 -67 -3 -6 -1 -7 6 -3 6
4 30 -6 53 -23 23 -17 51 -31 62 -31 14 0 5 9 -29 29 -27 16 -81 55 -120 88
-56 47 -71 66 -75 93 -3 19 -4 124 -2 233 l4 197 259 0 259 0 0 -227 0 -228
-63 -51 c-72 -58 -146 -110 -179 -124 -21 -9 -20 -10 6 -5 34 7 95 47 183 119
l62 51 2 213 c0 116 2 222 2 235 l1 22 -275 3 -276 2 -2 -234z"/>
<path d="M1095 1422 c-11 -2 -24 -7 -28 -12 -5 -4 4 -5 19 -2 20 4 25 2 19 -8
-7 -12 -9 -114 -3 -155 3 -19 -3 -20 -106 -22 -59 -1 -111 -4 -114 -7 -3 -3
49 -6 116 -6 l122 0 0 -190 c0 -120 4 -190 10 -190 12 0 12 5 10 90 -1 36 -1
72 -1 80 1 8 1 54 1 102 l1 86 50 4 c27 1 49 -1 49 -6 0 -5 -14 -33 -31 -63
-17 -30 -29 -57 -26 -60 3 -2 15 12 27 34 12 21 19 31 16 22 -14 -48 -45 -146
-51 -161 -4 -11 -3 -18 4 -18 6 0 11 6 11 13 0 9 10 12 30 9 25 -4 29 -8 24
-27 -3 -13 -1 -26 5 -29 7 -5 11 8 11 38 0 38 3 46 19 46 11 0 22 -10 26 -22
5 -17 8 -19 11 -8 3 8 -5 42 -16 74 -23 67 -26 108 -5 59 8 -18 19 -33 24 -33
8 0 -46 114 -66 139 -4 5 -37 9 -90 10 l-42 1 -3 108 c-3 101 -4 107 -23 104z
m155 -283 c0 -11 -4 -18 -10 -14 -5 3 -7 12 -3 20 7 21 13 19 13 -6z m0 -39
c0 -5 -4 -10 -10 -10 -5 0 -10 5 -10 10 0 6 5 10 10 10 6 0 10 -4 10 -10z m0
-30 c0 -5 -7 -10 -15 -10 -8 0 -15 5 -15 10 0 6 7 10 15 10 8 0 15 -4 15 -10z
m30 0 c0 -5 -4 -10 -10 -10 -5 0 -10 5 -10 10 0 6 5 10 10 10 6 0 10 -4 10
-10z m-35 -30 c-3 -5 -13 -10 -21 -10 -8 0 -14 5 -14 10 0 6 9 10 21 10 11 0
17 -4 14 -10z m35 0 c0 -5 -4 -10 -10 -10 -5 0 -10 5 -10 10 0 6 5 10 10 10 6
0 10 -4 10 -10z m-35 -30 c-3 -5 -15 -10 -26 -10 -10 0 -19 5 -19 10 0 6 12
10 26 10 14 0 23 -4 19 -10z m51 3 c-10 -11 -36 -12 -36 -2 0 5 10 9 22 9 12
0 18 -3 14 -7z m-53 -30 c-7 -2 -21 -2 -30 0 -10 3 -4 5 12 5 17 0 24 -2 18
-5z"/>
<path d="M798 1413 c7 -3 16 -2 19 1 4 3 -2 6 -13 5 -11 0 -14 -3 -6 -6z"/>
<path d="M937 1413 c-14 -13 -6 -47 17 -77 21 -28 22 -34 10 -51 -19 -26 -18
-35 5 -35 13 0 21 8 23 23 2 15 10 22 27 23 33 2 43 24 25 52 -11 17 -13 27
-4 37 7 8 7 15 1 19 -5 4 -14 -1 -18 -9 -8 -14 -12 -13 -28 5 -18 20 -45 26
-58 13z m48 -23 c15 -16 16 -23 6 -33 -10 -9 -15 -8 -27 7 -29 40 -12 62 21
26z m45 -49 c7 -14 7 -22 0 -26 -15 -9 -40 14 -33 31 7 20 20 18 33 -5z"/>
<path d="M1188 1391 c-31 -28 -32 -31 -15 -48 16 -16 17 -16 17 0 0 23 23 22
44 -2 18 -20 17 -23 -28 -46 -11 -5 -21 -17 -24 -25 -4 -12 -2 -13 9 -2 20 18
32 15 26 -8 -7 -28 12 -25 23 4 14 37 24 38 55 6 22 -23 32 -27 42 -19 10 9 7
17 -19 39 -27 24 -30 30 -19 44 8 9 19 16 26 16 7 0 18 7 25 15 14 17 0 21
-17 4 -16 -16 -28 8 -13 26 7 9 8 15 2 15 -12 0 -34 -25 -27 -32 3 -3 -3 -12
-13 -21 -18 -16 -20 -16 -36 2 -19 21 -14 41 10 41 8 0 12 5 9 10 -11 18 -44
10 -77 -19z"/>
<path d="M1022 1275 c4 -4 0 -14 -10 -22 -16 -12 -15 -13 8 -11 27 3 34 28 10
36 -8 3 -12 1 -8 -3z"/>
<path d="M1275 1200 c3 -5 15 -15 27 -21 15 -8 19 -8 13 1 -5 7 -1 11 11 10
34 -4 54 0 54 10 0 6 -25 10 -56 10 -34 0 -53 -4 -49 -10z"/>
<path d="M939 1158 c-1 -7 -2 -22 -3 -33 -1 -14 -9 -21 -28 -23 -34 -4 -36
-27 -10 -89 21 -52 33 -56 25 -8 -5 34 -5 35 28 35 19 0 58 3 87 6 47 6 52 5
52 -12 0 -15 -2 -16 -9 -5 -7 11 -13 10 -35 -4 -26 -17 -34 -35 -16 -35 6 0
10 5 10 12 0 9 3 9 12 0 17 -17 33 -15 18 3 -11 13 -10 14 4 9 9 -3 17 -11 17
-18 1 -6 4 5 8 24 5 29 2 39 -20 62 -20 20 -26 35 -23 58 l4 30 -60 0 c-41 0
-60 -4 -61 -12z m99 -5 c-10 -3 -18 -9 -18 -15 0 -5 6 -8 13 -5 10 4 14 -6 15
-33 l2 -39 -40 4 c-23 2 -40 -1 -40 -7 0 -5 -6 -8 -12 -6 -14 5 -12 90 3 98 4
3 28 6 51 6 24 1 35 -1 26 -3z m-118 -80 c0 -5 -5 -15 -10 -23 -7 -12 -9 -10
-7 8 1 19 17 33 17 15z"/>
<path d="M975 1130 c3 -5 10 -10 16 -10 5 0 9 5 9 10 0 6 -7 10 -16 10 -8 0
-12 -4 -9 -10z"/>
<path d="M949 1021 c11 -7 10 -10 -5 -14 -16 -4 -17 -5 -1 -6 9 0 17 -4 17 -8
0 -5 11 -9 25 -9 20 -2 23 1 15 11 -8 10 -7 14 2 18 9 4 9 6 1 6 -6 1 -15 -3
-18 -9 -10 -16 -25 -12 -19 5 4 10 0 15 -12 15 -15 0 -16 -2 -5 -9z"/>
<path d="M786 997 c3 -10 9 -15 12 -12 3 3 0 11 -7 18 -10 9 -11 8 -5 -6z"/>
<path d="M1270 970 c0 -5 5 -10 10 -10 6 0 10 5 10 10 0 6 -4 10 -10 10 -5 0
-10 -4 -10 -10z"/>
<path d="M1443 966 c3 -7 0 -20 -6 -27 -10 -11 -9 -11 5 0 15 11 15 41 1 41
-3 0 -3 -6 0 -14z"/>
<path d="M1399 953 c-13 -16 -12 -17 4 -4 16 13 21 21 13 21 -2 0 -10 -8 -17
-17z"/>
<path d="M902 914 c10 -10 20 -16 22 -13 3 3 -5 11 -17 18 -21 13 -21 12 -5
-5z"/>
<path d="M1319 893 c-13 -16 -12 -17 4 -4 16 13 21 21 13 21 -2 0 -10 -8 -17
-17z"/>
<path d="M823 1776 c7 -15 16 -21 21 -16 6 6 4 15 -4 25 -19 23 -29 18 -17 -9z"/>
<path d="M780 1769 c-13 -9 -12 -10 3 -5 9 3 17 1 17 -4 0 -6 4 -10 10 -10 5
0 7 7 4 15 -7 18 -14 18 -34 4z"/>
<path d="M756 1735 c7 -18 40 -20 50 -3 5 8 2 9 -9 5 -9 -3 -19 -2 -22 3 -10
16 -25 11 -19 -5z"/>
<path d="M706 1714 c-4 -9 -1 -23 6 -32 11 -13 9 -14 -14 -8 -17 4 -28 2 -28
-4 0 -5 5 -10 10 -10 12 0 13 -10 1 -29 -8 -12 -12 -13 -25 -1 -25 20 -29 6
-5 -16 18 -16 22 -16 29 -4 5 8 18 26 29 39 12 13 21 28 21 33 0 4 7 8 16 8 8
0 12 5 9 10 -4 6 -16 8 -28 4 -19 -6 -20 -5 -8 10 7 9 9 16 3 16 -5 0 -13 -7
-16 -16z"/>
<path d="M1535 1689 c-18 -21 -18 -22 -1 -9 18 14 18 13 11 -10 -6 -19 -4 -22
5 -14 6 7 10 22 8 34 l-3 22 -20 -23z"/>
<path d="M1573 1678 c3 -10 2 -20 -3 -23 -6 -4 -10 -12 -10 -18 1 -16 28 -52
35 -45 9 8 -6 38 -16 32 -5 -3 -9 -1 -9 5 0 17 22 24 31 10 4 -7 10 -11 13 -8
3 3 -7 18 -21 34 -14 17 -23 22 -20 13z"/>
<path d="M633 1593 c9 -9 20 -13 24 -9 4 4 1 11 -7 16 -25 16 -35 11 -17 -7z"/>
<path d="M1629 1598 c0 -2 -2 -10 -4 -18 -1 -8 -4 -21 -6 -29 -2 -7 2 -16 9
-18 7 -3 12 -1 11 4 -3 20 2 32 14 29 6 -1 9 -1 5 1 -5 3 -8 11 -8 19 0 11
-18 21 -21 12z"/>
<path d="M599 1569 c-8 -16 -8 -20 0 -14 7 4 18 2 26 -5 7 -6 16 -7 19 -2 3 5
-4 16 -14 25 -18 15 -20 15 -31 -4z"/>
<path d="M1645 1520 c-10 -11 -14 -20 -8 -20 5 0 18 9 28 20 10 11 14 20 8 20
-5 0 -18 -9 -28 -20z"/>
<path d="M592 1500 c7 -11 17 -20 22 -20 4 0 3 6 -3 14 -10 11 -8 15 6 19 12
3 8 5 -10 6 -25 1 -26 -1 -15 -19z"/>
<path d="M1655 1490 c-14 -15 -15 -20 -4 -20 8 0 20 9 27 20 7 11 8 20 4 20
-5 0 -17 -9 -27 -20z"/>
<path d="M570 1485 c10 -12 9 -15 -6 -16 -11 -1 -6 -4 11 -8 39 -9 41 -7 16
18 -24 24 -40 28 -21 6z"/>
<path d="M1660 1450 c-12 -8 -12 -10 5 -10 11 0 27 5 35 10 12 8 12 10 -5 10
-11 0 -27 -5 -35 -10z"/>
<path d="M556 1425 c-11 -8 -15 -15 -9 -15 19 0 43 12 43 21 0 13 -12 11 -34
-6z"/>
<path d="M1695 1410 c-3 -5 -11 -8 -18 -6 -7 1 -9 1 -4 -1 4 -3 4 -9 1 -15 -4
-6 2 -6 14 1 24 13 38 31 23 31 -5 0 -12 -4 -16 -10z"/>
<path d="M555 1380 c-19 -8 -19 -9 2 -9 12 -1 25 4 28 9 7 12 -2 12 -30 0z"/>
<path d="M1680 1370 c-12 -8 -11 -10 7 -10 12 0 25 5 28 10 8 13 -15 13 -35 0z"/>
<path d="M570 1349 c0 -6 -9 -8 -20 -4 -11 4 -20 2 -20 -4 0 -17 47 -13 54 4
3 8 1 15 -4 15 -6 0 -10 -5 -10 -11z"/>
<path d="M1674 1339 c-3 -6 -1 -16 6 -22 9 -9 11 -8 8 3 -2 9 4 15 14 15 9 0
20 4 24 8 4 4 -4 7 -19 7 -14 0 -29 -5 -33 -11z"/>
<path d="M540 1310 c-8 -5 -12 -12 -9 -15 8 -8 39 5 39 16 0 11 -11 11 -30 -1z"/>
<path d="M1694 1292 c-6 -4 -13 -15 -17 -24 -5 -15 -1 -18 24 -18 19 0 28 4
24 11 -4 6 -14 8 -24 5 -9 -4 -5 3 9 14 17 13 20 20 10 20 -8 0 -20 -4 -26 -8z"/>
<path d="M551 1260 l-23 -20 28 0 c15 0 24 3 21 7 -4 3 -2 12 4 20 17 20 -3
15 -30 -7z"/>
<path d="M1668 1215 c-5 -25 2 -32 16 -17 4 4 13 7 19 7 7 0 13 8 15 18 3 12
-3 17 -21 17 -18 0 -26 -6 -29 -25z"/>
<path d="M541 1217 c-13 -17 -1 -30 38 -42 18 -6 22 -4 15 6 -5 8 -9 21 -9 29
0 20 -29 24 -44 7z m34 -7 c3 -6 -4 -10 -17 -10 -18 0 -20 2 -8 10 19 12 18
12 25 0z"/>
<path d="M1665 1170 c-3 -5 3 -10 14 -10 11 0 23 5 26 10 3 6 -3 10 -14 10
-11 0 -23 -4 -26 -10z"/>
<path d="M563 1153 c-23 -9 -14 -20 12 -15 14 2 25 8 25 13 0 10 -17 11 -37 2z"/>
<path d="M1650 1145 c0 -9 44 -23 54 -17 5 3 1 9 -10 13 -23 9 -44 11 -44 4z"/>
<path d="M885 810 c3 -5 8 -10 11 -10 2 0 4 5 4 10 0 6 -5 10 -11 10 -5 0 -7
-4 -4 -10z"/>
<path d="M845 799 c-4 -5 -3 -19 1 -31 6 -21 7 -21 20 -3 8 10 14 22 14 26 0
12 -29 19 -35 8z m25 -13 c0 -3 -4 -8 -10 -11 -5 -3 -10 -1 -10 4 0 6 5 11 10
11 6 0 10 -2 10 -4z"/>
<path d="M882 765 c-6 -14 -8 -25 -4 -25 4 0 12 11 19 25 6 14 8 25 4 25 -4 0
-13 -11 -19 -25z"/>
<path d="M924 765 c3 -8 1 -15 -5 -15 -6 0 -7 -5 -3 -12 5 -7 11 -5 21 8 13
17 14 17 7 -10 -5 -21 -4 -27 5 -22 6 4 11 14 11 23 0 12 3 13 14 4 8 -7 16
-8 19 -4 3 5 -13 16 -35 25 -33 14 -39 15 -34 3z"/>
<path d="M1240 770 c0 -5 5 -10 10 -10 6 0 10 5 10 10 0 6 -4 10 -10 10 -5 0
-10 -4 -10 -10z"/>
<path d="M1028 744 c9 -4 10 -9 2 -19 -15 -19 26 -43 43 -26 9 9 8 14 -3 21
-13 8 -12 10 3 10 9 0 17 -5 17 -11 0 -6 7 -17 15 -25 13 -14 15 -13 15 6 0
12 -4 18 -10 15 -5 -3 -10 -1 -10 4 0 6 9 11 20 11 12 0 20 -6 18 -12 -3 -17
20 -58 32 -58 6 0 10 18 10 40 l0 40 -57 0 c-32 0 -69 3 -83 5 -14 3 -19 2
-12 -1z m32 -34 c8 -5 11 -10 5 -10 -5 0 -17 5 -25 10 -8 5 -10 10 -5 10 6 0
17 -5 25 -10z m110 -15 c0 -8 -2 -15 -4 -15 -2 0 -6 7 -10 15 -3 8 -1 15 4 15
6 0 10 -7 10 -15z"/>
<path d="M960 710 c0 -5 4 -10 9 -10 6 0 13 5 16 10 3 6 -1 10 -9 10 -9 0 -16
-4 -16 -10z"/>
<path d="M546 1882 c-3 -5 1 -9 9 -9 8 0 12 4 9 9 -3 4 -7 8 -9 8 -2 0 -6 -4
-9 -8z"/>
<path d="M1655 1789 c-4 -6 -5 -12 -2 -15 2 -3 7 2 10 11 7 17 1 20 -8 4z"/>
<path d="M1830 1610 c-9 -6 -10 -10 -3 -10 6 0 15 5 18 10 8 12 4 12 -15 0z"/>
<path d="M1860 1586 c0 -2 7 -7 16 -10 8 -3 12 -2 9 4 -6 10 -25 14 -25 6z"/>
<path d="M424 1548 c-4 -7 -3 -8 5 -4 6 4 18 3 26 -4 10 -8 15 -8 21 1 4 7 3
9 -4 5 -6 -3 -13 -2 -17 4 -8 13 -22 13 -31 -2z"/>
<path d="M456 1013 c-6 -14 -5 -15 5 -6 7 7 10 15 7 18 -3 3 -9 -2 -12 -12z"/>
<path d="M1611 797 c-8 -10 -7 -14 2 -14 8 0 14 6 14 14 0 7 -1 13 -2 13 -2 0
-8 -6 -14 -13z"/>
<path d="M531 756 c-8 -10 -9 -16 -1 -21 6 -4 9 -1 8 7 -2 7 3 12 10 10 8 -1
11 2 7 8 -8 13 -10 13 -24 -4z"/>
<path d="M563 713 c0 -9 4 -10 14 -2 7 6 13 12 13 14 0 1 -6 2 -13 2 -8 0 -14
-6 -14 -14z"/>
<path d="M97 1424 c-11 -11 -8 -83 4 -106 14 -27 4 -35 -19 -15 -32 29 -42 21
-42 -35 0 -60 26 -112 64 -130 14 -6 27 -17 31 -25 5 -15 4 -15 -42 4 -8 3
-13 -2 -13 -13 0 -20 48 -74 66 -74 12 0 28 -29 20 -37 -2 -3 -13 0 -24 6 -26
14 -42 14 -42 1 0 -18 63 -81 76 -76 14 5 38 -27 28 -37 -4 -3 -14 -1 -25 6
-25 15 -35 2 -20 -26 12 -23 71 -65 71 -51 0 3 7 0 17 -7 15 -13 13 -15 -16
-19 l-33 -5 22 -27 c12 -15 35 -31 52 -36 37 -9 50 -32 19 -32 -12 0 -21 -6
-21 -12 1 -18 46 -49 73 -50 23 -2 57 -25 57 -40 0 -5 -12 -7 -26 -6 -15 2
-29 -2 -31 -8 -5 -16 63 -47 87 -39 13 4 29 -2 47 -19 l28 -26 -33 0 c-38 0
-41 -14 -7 -36 17 -11 37 -15 58 -11 23 4 40 -1 58 -14 l24 -19 -27 0 c-34 0
-36 -13 -6 -34 26 -18 75 -21 80 -5 2 7 15 4 36 -8 37 -21 41 -32 10 -26 -29
4 -57 -12 -43 -26 20 -19 81 -24 98 -6 15 15 19 15 49 -1 32 -17 32 -17 10
-27 -41 -18 -23 -39 35 -39 20 0 39 6 44 13 6 11 11 11 21 1 6 -6 20 -12 29
-12 30 0 32 -20 2 -31 -22 -8 -24 -12 -13 -19 22 -14 98 -12 103 3 3 10 9 9
26 -1 11 -6 28 -12 36 -12 8 0 15 -3 15 -8 0 -8 -289 -107 -375 -128 -47 -12
-48 -12 -15 -13 34 -1 128 27 321 95 l95 34 198 -65 c110 -36 213 -65 234 -64
36 1 36 1 -13 13 -80 19 -385 120 -385 127 0 14 42 17 66 4 28 -14 85 -6 92
13 2 6 -3 12 -12 12 -8 0 -18 4 -21 10 -8 14 57 40 72 28 16 -13 96 -6 100 8
2 7 -9 16 -24 22 l-28 9 39 17 c30 13 41 14 47 4 9 -15 77 -14 92 1 14 14 -7
30 -38 31 -18 0 -18 2 5 20 26 21 56 27 45 10 -10 -16 58 -12 83 6 25 17 21
34 -9 34 -24 0 -24 9 -1 26 9 7 29 10 44 7 34 -7 88 14 88 33 0 8 -10 14 -25
14 -14 0 -25 3 -25 8 0 14 45 36 77 37 42 2 91 34 72 46 -8 5 -22 6 -31 3 -21
-6 -23 4 -4 29 7 9 26 17 43 17 18 0 38 9 51 23 29 31 28 40 -3 34 -38 -7 -28
25 11 35 16 4 40 19 53 32 27 28 21 52 -9 36 -27 -14 -32 -12 -19 8 6 10 20
19 31 19 27 2 68 42 68 65 0 19 -15 24 -25 8 -3 -5 -13 -10 -20 -10 -12 0 -12
5 -4 24 7 14 17 22 25 19 16 -6 74 49 74 71 0 21 -19 20 -42 -1 -10 -9 -21
-14 -24 -10 -9 9 15 47 30 47 17 0 66 56 66 76 0 18 -24 18 -40 -1 -18 -21
-29 -19 -23 5 3 11 11 20 18 20 8 0 27 14 44 31 28 28 31 36 31 95 0 35 -3 64
-8 64 -4 0 -18 -7 -31 -17 -24 -16 -24 -16 -15 13 10 34 11 100 2 110 -4 3
-12 3 -19 -1 -8 -5 -10 -28 -6 -71 2 -35 3 -64 1 -64 -2 0 -15 11 -29 26 -27
27 -45 25 -45 -5 0 -24 37 -71 56 -71 9 0 14 -11 14 -30 0 -38 -9 -38 -41 1
-32 39 -53 32 -37 -11 5 -17 21 -38 34 -49 19 -15 22 -24 17 -55 -6 -39 -18
-47 -28 -17 -7 23 -43 56 -51 48 -11 -11 6 -58 30 -82 17 -17 22 -31 19 -49
-5 -24 -23 -37 -23 -17 0 14 -30 41 -45 41 -12 0 -12 -6 -4 -27 6 -16 17 -36
26 -45 10 -11 13 -26 9 -43 -8 -33 -19 -32 -33 5 -6 17 -16 30 -22 30 -16 0
-13 -50 4 -84 13 -24 13 -34 3 -57 -16 -37 -22 -36 -33 3 -14 46 -35 48 -35 3
0 -20 5 -45 10 -55 7 -13 6 -27 -2 -44 -13 -30 -28 -34 -28 -7 0 10 -7 24 -16
32 -13 10 -17 10 -24 -2 -10 -14 -3 -56 11 -75 5 -6 -3 -24 -21 -45 -25 -29
-29 -31 -30 -14 0 11 -7 31 -16 44 -15 20 -18 21 -26 7 -5 -9 -5 -32 2 -57 12
-43 5 -60 -31 -79 -15 -9 -16 -5 -12 30 4 27 2 40 -6 40 -17 0 -44 -69 -37
-95 4 -16 -1 -25 -19 -35 -14 -7 -25 -17 -25 -22 0 -4 -7 -8 -15 -8 -12 0 -13
4 -5 19 14 28 12 51 -5 51 -16 0 -36 -32 -44 -74 -4 -16 -17 -36 -30 -44 -23
-16 -23 -16 -17 15 4 17 3 34 -3 37 -13 8 -61 -51 -61 -75 0 -12 -15 -26 -41
-39 -46 -24 -56 -21 -40 8 15 28 14 42 -2 42 -21 0 -47 -33 -49 -64 -2 -22
-12 -33 -50 -52 -47 -24 -65 -21 -47 6 12 20 11 60 -1 60 -15 0 -50 -61 -50
-86 0 -29 -38 -38 -90 -22 -26 9 -38 18 -35 26 9 24 -33 91 -57 92 -12 0 -10
-48 2 -55 5 -3 10 -12 10 -20 0 -10 -12 -8 -50 8 -37 15 -50 26 -50 41 0 26
-36 86 -51 86 -12 0 -8 -39 6 -73 7 -16 1 -15 -44 7 -39 20 -51 32 -51 50 0
25 -35 76 -52 76 -7 0 -8 -13 -5 -35 7 -40 5 -41 -28 -19 -16 11 -25 26 -25
43 0 29 -25 71 -42 71 -6 0 -8 -13 -6 -30 5 -35 -4 -37 -42 -10 -21 15 -26 25
-22 45 5 30 -16 87 -32 82 -6 -2 -10 -21 -9 -42 l3 -39 -30 29 c-23 22 -27 32
-20 46 15 27 12 79 -4 79 -15 0 -26 -21 -26 -51 0 -27 -13 -24 -38 11 -18 24
-20 34 -12 49 5 11 10 33 10 50 0 41 -26 41 -43 -1 l-13 -31 -17 27 c-16 24
-16 29 -2 48 15 23 20 69 8 81 -11 12 -33 -14 -33 -39 0 -32 -16 -30 -32 4
-11 23 -11 32 4 62 32 61 13 109 -20 51 -20 -36 -28 -38 -35 -10 -3 12 4 34
19 56 13 20 24 42 24 49 0 21 -28 17 -42 -6 -7 -11 -18 -20 -25 -20 -20 0 -15
45 6 64 21 20 47 74 38 82 -10 10 -45 -15 -52 -37 -9 -27 -29 -19 -33 13 -2
17 5 34 22 51 26 26 43 73 31 85 -3 4 -20 -8 -36 -26 -16 -17 -31 -32 -34 -32
-3 0 -5 14 -5 30 0 19 5 30 14 30 8 0 24 16 36 35 33 53 8 75 -37 33 l-23 -21
3 68 c2 63 -7 87 -26 69z m11 -157 c15 6 16 -13 1 -23 -7 -4 -9 -21 -6 -43 l6
-36 -19 24 c-11 13 -20 28 -21 35 0 6 -2 21 -3 33 -2 17 1 20 13 14 9 -5 22
-6 29 -4z m2075 -35 c3 -17 -2 -35 -14 -51 l-19 -24 4 36 c3 20 1 39 -4 42
-16 10 -11 21 9 22 13 1 20 -7 24 -25z m-1539 -821 c3 -5 -1 -14 -8 -20 -10
-9 -16 -9 -21 -1 -4 6 -1 9 7 8 7 -2 12 3 11 10 -3 14 3 16 11 3z"/>
<path d="M243 625 c0 -8 4 -12 9 -9 5 3 6 10 3 15 -9 13 -12 11 -12 -6z"/>
</g>
</svg>
